<svg aria-hidden="true" style="width:0;height:0;position:absolute;overflow:hidden" xmlns="http://www.w3.org/2000/svg"><defs><symbol id="arrow" viewBox="0 0 14 32"><path d="M6.334 31.624c.17.171.406.276.666.276s.496-.105.666-.276l5.99-5.989a.94.94 0 0 0-.666-1.608.938.938 0 0 0-.666.276l-5.323 5.325-5.325-5.325a.94.94 0 0 0-1.608.666c0 .26.105.495.276.666l5.991 5.989zM6.058.84v30.118H7.94V.84H6.058z"/></symbol><symbol id="buy" viewBox="0 0 33 32"><path stroke-linejoin="round" stroke-linecap="round" stroke-width="2" d="M10.156 26.427a1.022 1.022 0 0 1 .002 2.04h-.003a1.02 1.02 0 0 1 0-2.04zm15.003 0a1.02 1.02 0 1 1 0 2.042h-.001a1.02 1.02 0 1 1 0-2.042h.001zM3.925 4.333l2.773.48L7.982 20.11a2.404 2.404 0 0 0 2.394 2.204h14.551a2.405 2.405 0 0 0 2.38-2.061l1.267-8.744a1.787 1.787 0 0 0-1.768-2.044H7.143m11.95 4.931h3.697"/></symbol><symbol id="delivery-man" viewBox="0 0 32 32"><path fill="#09a66d" style="fill:var(--color1,#09a66d)" d="M29.929 10.33h-5.294a1.66 1.66 0 0 0-1.657 1.658v6.094h-1.98c.109-.4.151-.873.124-1.421-.043-2.321-.464-4.277-1.252-5.813-.612-1.194-1.325-1.909-1.938-2.337.719-.739 1.135-1.79 1.135-3.003 0-2.182-1.741-3.957-3.88-3.957s-3.88 1.775-3.88 3.957c0 .252.204.457.457.457h.311a3.176 3.176 0 0 0 2.488 3.633l.021.004c-.152.566-.228 1.232-.228 1.99l-1.14.98-2.775.225-3.202-1.058c-.293-.098-.626-.208-.915 0-.284.205-.284.564-.284.682v2.38c0 .253.205.457.457.457h.544l-.835 2.885a.457.457 0 0 0 .878.257l.001-.003.909-3.14h1.3c-1.617 4.931-.695 8.222.724 11.554h-.823l-3.423-3.828.724-2.501a.457.457 0 0 0-.878-.257l-.001.003-.692 2.392h-.063a4.601 4.601 0 0 0-4.476 3.535l-.006.031a.457.457 0 0 0 .34.547l.003.001.649.149a3.506 3.506 0 0 0 3.489 3.837 3.48 3.48 0 0 0 1.851-.535 3.494 3.494 0 0 0 1.414-1.721l.008-.024.512.117c.153.036.297.055.443-.023a.526.526 0 0 0 .257-.348l.001-.003c.032-.15.056-.302.073-.456h9.565c.306 1.902 1.924 3.335 3.856 3.335s3.551-1.433 3.856-3.335h.35l.085.001c.13 0 .32-.014.475-.172a.583.583 0 0 0 .163-.405l-.001-.042v.002a5.193 5.193 0 0 0-.196-1.275l.009.037c.364-2.212.014-3.559-.506-4.613.329-.215.546-.586.546-1.008v-1.257h2.31a1.66 1.66 0 0 0 1.657-1.659v-5.35a1.66 1.66 0 0 0-1.657-1.658zM6.226 29.411a2.566 2.566 0 0 1-1.951.329 2.596 2.596 0 0 1-2.003-2.652v.006l4.961 1.141a2.591 2.591 0 0 1-.996 1.171l-.011.006zm2.287-1.821L1.4 25.953a3.692 3.692 0 0 1 3.651-2.412h-.009l3.485 3.896a3.342 3.342 0 0 1-.014.17l.001-.016zm6.908-7.969c-.133.35-.133.78-.133 1.378v1.726h-1.674v-2.368c0-2.677 1.46-3.153 2.116-3.233h4.485c-.018.608-.155 1.04-.415 1.314-.304.32-.823.475-1.587.476l-1.641.002c-.585 0-.973.237-1.15.704zm-.133 4.02v1.091h-3.261c.037-.339.142-.601.315-.782.258-.269.62-.31.814-.31h2.132zm4.906-7.43h-4.159a14.987 14.987 0 0 1-.418-1.581l-.02-.112 1.264-.82c.69-.449 1.049-1.082.985-1.738a1.622 1.622 0 0 0-.996-1.32l-.011-.004c-.507-.203-1.054-.139-1.535.169.039-.437.114-.827.221-1.16.195-.02.389-.058.578-.114.404-.094.76-.24 1.085-.433l-.018.01c.88.526 2.818 2.233 3.023 7.102zM12.256 5.05c.215-1.46 1.448-2.583 2.931-2.583 1.635 0 2.965 1.364 2.965 3.042 0 1.364-.654 2.464-1.709 2.948V6.05c0-.417-.159-.929-.919-.997a.416.416 0 0 0-.038-.002h-3.231zm.691 1.442c0-.18.02-.357.061-.527h2.453a1 1 0 0 1 .068.01l-.005-.001a.53.53 0 0 1 .005.072v2.678a2.262 2.262 0 0 1-.328.024h-.003a2.257 2.257 0 0 1-2.251-2.256zm-.593 7.068 1.083-.087a.45.45 0 0 0 .262-.11l-.001.001 1.955-1.681c.189-.164.39-.247.588-.247.087 0 .173.016.258.05a.691.691 0 0 1 .437.563c.03.309-.173.622-.573.882l-2.178 1.413h-1.831v-.784zm-1.933.156 1.018-.082v.71h-1.182c-.154 0-.191-.127-.195-.234-.003-.061.003-.364.36-.394zm-1.082-.315a1.32 1.32 0 0 0-.167.949l-.001-.008v.004H6.955V12.61l2.386.788c0 .002 0 .003-.002.004zm.92 1.858h4.063a.456.456 0 0 0 .25-.074l-.002.001.206-.135c.1.44.213.869.336 1.273-.932.276-2.412 1.165-2.412 4.034v2.413a1.914 1.914 0 0 0-1.018.546c-.334.351-.525.825-.571 1.414h-.923c-.93-2.679-1.283-5.53.072-9.473zm.754 11.553c-.076-.147-.24-.531-.397-.918l-.088-.247h4.748c.615 0 .927-.28.927-.833v-3.356h3.61a.458.458 0 1 0 0-.916h-3.606c.005-.259.022-.472.07-.597.023-.062.042-.114.293-.114l1.642-.002c1.028-.002 1.764-.25 2.249-.761.023-.023.044-.048.066-.073h6.178v1.257c0 .158-.133.29-.289.29h-4.553a.457.457 0 1 0 0 .914h4.283c.362.671.687 1.506.667 2.825a4.945 4.945 0 0 0-4.02-2.065h-.011.001-.013a4.91 4.91 0 0 0-3.514 1.474l-.001.001a5.019 5.019 0 0 0-1.436 3.102l-.001.019-6.804-.002zm11.826 3.337c-1.43 0-2.636-1.03-2.927-2.421h5.854c-.292 1.391-1.498 2.421-2.927 2.421zm3.447-3.335h-7.55c.225-2.068 1.954-3.682 4.047-3.682 1.837 0 3.38 1.211 3.892 2.907.07.222.125.485.154.755l.002.019h-.544zm4.386-9.475c0 .41-.332.742-.742.743h-6.036v-2.363h6.779v1.618zm0-2.534h-6.779v-.973h6.779v.973zm0-1.887h-6.779v-.93c0-.41.332-.743.741-.743h5.295c.409 0 .741.333.741.743v.93z"/></symbol><symbol id="facebook" viewBox="0 0 32 32"><path d="M17.408 11.571v-3.84c0-1.06.86-1.92 1.92-1.92h1.92v-4.8h-3.84a5.76 5.76 0 0 0-5.76 5.76v4.8h-3.84v4.8h3.84v15.36h5.76v-15.36h3.84l1.92-4.8h-5.76z"/></symbol><symbol id="fast-time" viewBox="0 0 32 32"><path fill="#09a66d" style="fill:var(--color1,#09a66d)" d="M2.737 9.795H7.56a.457.457 0 0 0 0-.914H2.717a.457.457 0 1 0 0 .914h.02-.001zm4.658 2.202H5.489a.457.457 0 1 0 0 .914h1.906a.457.457 0 1 0 0-.914zM.824 15.169h4.665a.457.457 0 1 0 0-.914H.824a.457.457 0 1 0 0 .914zm7.193 8.107a.457.457 0 0 0-.457-.457H2.737a.457.457 0 1 0 0 .914H7.56a.457.457 0 0 0 .457-.457zm-.622-3.573H5.489a.457.457 0 1 0 0 .914h1.906a.457.457 0 1 0 0-.914zm-1.448-1.8a.457.457 0 0 0-.457-.457H.824a.457.457 0 1 0 0 .914h4.665a.457.457 0 0 0 .457-.457zm13.903-7.094a.457.457 0 0 0 .457-.457v-.698a.457.457 0 1 0-.914 0v.698c0 .253.204.457.457.457zm5.028.47a.455.455 0 0 0-.646 0l-.494.494a.458.458 0 0 0 .648.647l.492-.493a.455.455 0 0 0 0-.646zm.927 4.571h-.019a.457.457 0 1 0 0 .914h.02-.001.717a.457.457 0 1 0 0-.914h-.02.001-.698zm-1.42 4.345a.457.457 0 0 0-.647.646l.494.494a.456.456 0 0 0 .646-.647l-.493-.493zm-4.992 2.068v.698a.457.457 0 1 0 .914 0v-.698a.457.457 0 1 0-.914 0zm-4.077-2.068-.493.493a.457.457 0 0 0 .646.647l.494-.494a.456.456 0 0 0-.647-.646zm-2.119-4.345h-.019a.457.457 0 1 0 0 .914h.02-.001.698a.457.457 0 0 0 0-.914h-.699zm2.766-4.077-.494-.494a.456.456 0 0 0-.646.647l.493.493a.457.457 0 1 0 .646-.646zm6.346 4.534a.458.458 0 0 0-.457-.457h-1.545v-3.414a.457.457 0 1 0-.914 0v.02-.001 3.852c0 .253.204.457.457.457h2.002a.457.457 0 0 0 .457-.457z"/><path fill="#09a66d" style="fill:var(--color1,#09a66d)" d="M28.521 16.232a.458.458 0 0 0 .43-.457l-.001-.029v.001c-.291-4.8-4.289-8.559-9.101-8.559-5.028 0-9.118 4.09-9.118 9.118s4.09 9.118 9.118 9.118c4.503 0 8.347-3.301 9.016-7.753a.458.458 0 0 0-.905-.139v.003c-.6 4.001-4.055 6.974-8.111 6.974-4.524 0-8.203-3.68-8.203-8.203s3.679-8.203 8.203-8.203c4.329 0 7.925 3.381 8.187 7.698a.458.458 0 0 0 .484.429z"/><path fill="#09a66d" style="fill:var(--color1,#09a66d)" d="M19.85 4.571c-1.608 0-3.184.333-4.635.958H7.146a.457.457 0 1 0 0 .914h6.348a11.846 11.846 0 0 0-2.337 1.978l-.009.01a.459.459 0 0 0 .345.757.455.455 0 0 0 .332-.143 10.822 10.822 0 0 1 8.023-3.559h.001c5.966 0 10.821 4.855 10.821 10.821s-4.855 10.821-10.821 10.821S9.028 22.273 9.028 16.307c0-2.089.597-4.117 1.726-5.865a.457.457 0 1 0-.767-.498l-.001.002a11.588 11.588 0 0 0-1.873 6.348v.014-.001c0 4.133 2.146 7.772 5.384 9.864H7.145a.457.457 0 1 0 0 .914h8.062c1.364.605 2.956.958 4.629.958h.013-.001c6.472 0 11.736-5.264 11.736-11.736 0-6.47-5.264-11.735-11.736-11.735z"/></symbol><symbol id="harvest" viewBox="0 0 32 32"><path fill="#09a66d" style="fill:var(--color1,#09a66d)" d="M22.472 10h1.45c1.207 0 2.217-.86 2.45-2h-1.45c-1.207 0-2.217.86-2.45 2zM11 5.5c.05 0 .098.006.147.008l.351-3.51c.002-.295-.201-.498-.45-.498h-.095a.453.453 0 0 0-.453.452l.354 3.556c.049-.002.097-.008.146-.008zM7 16c0-.17.018-.337.045-.5H6v.342c.375.179.713.42 1 .713V16zM6.595 3.778l1.71 2.518c.135-.086.273-.166.416-.24L7.692 3.228a.549.549 0 0 0-.768-.31l.003-.001-.125.062a.55.55 0 0 0-.206.802l-.001-.002zM8.691 14.5h5.569l.656-3.148a4 4 0 0 0 .084-.816C15 8.294 13.206 6.5 11 6.5s-4 1.794-4 4c0 .31.029.584.084.852l.578 2.773A2.99 2.99 0 0 1 10 13v1c-.502 0-.957.193-1.309.5zm3.809-6h1v1h-1v-1zm0 2h1v1h-1v-1zm0 2h1v1h-1v-1zm-7 6h1.45a2.508 2.508 0 0 0-2.45-2H3.05c.233 1.14 1.243 2 2.45 2zm9.905-14.723a.547.547 0 0 0-.206-.797l-.003-.001-.124-.063a.546.546 0 0 0-.735.242l-.001.003a.748.748 0 0 0-.028.062l-.001.004-1.027 2.828c.143.074.281.154.415.24l1.711-2.518zM14.492 24.5H28.5v-3H13.826c.442.928.666 1.949.666 3zm12.008-2h1v1h-1v-1zm-13.268 6H27c.827 0 1.5-.673 1.5-1.5v-1.5H14.428a6.94 6.94 0 0 1-1.21 3.021l.014-.021zm13.268-2h1v1h-1v-1zm-18.429-11a1.902 1.902 0 0 0-.071.499v.501h22.5v-1H8.071zM8 18.933c.1-.024.201-.05.293-.089a3.816 3.816 0 0 1 1.524-.312c1.146 0 2.175.496 2.886 1.285l.003.003c.194.215.367.444.531.678H28.5v-3H8v1.434zm18.5-.433h1v1h-1v-1z"/><path fill="#09a66d" style="fill:var(--color1,#09a66d)" d="M11.963 20.49a2.914 2.914 0 0 0-3.296-.72l.019-.007a2.853 2.853 0 0 1-.669.191L8 19.956v.942c.496-.185.968-.575 1.147-.753l.707.708C9.736 20.971 8.674 22 7.5 22c-1.173 0-2.237-1.03-2.354-1.147l.707-.708c.179.178.65.567 1.147.753V19.5H5.5c-.17 0-.335-.016-.497-.04-.702.05-1.442.442-1.989 1.055A5.962 5.962 0 0 0 1.5 24.496v.005c0 1.646.654 3.182 1.84 4.324a5.94 5.94 0 0 0 4.412 1.67h-.013c3.09-.12 5.619-2.633 5.756-5.723a5.955 5.955 0 0 0-1.536-4.287l.005.005zM7.5 29.5c-2.757 0-5-2.243-5-5h1c0 2.205 1.795 4 4 4v1zm18.885-15a5.98 5.98 0 0 0-1.349-2.515l.005.005a2.913 2.913 0 0 0-2.155-.95c-.405 0-.79.082-1.141.231l.019-.007a2.526 2.526 0 0 1-.244.09l-.02.005V7c0-.827.673-1.5 1.5-1.5h.5v-1H23A2.503 2.503 0 0 0 20.5 7v4.359a2.746 2.746 0 0 1-.283-.102l.019.007a2.865 2.865 0 0 0-1.122-.224 2.91 2.91 0 0 0-2.153.948l-.002.002a5.954 5.954 0 0 0-1.336 2.468l-.009.042h10.771zm-7.632-2.431c.008.004.765.431 2.247.431s2.239-.427 2.246-.431l.51.86c-.038.023-.972.571-2.756.571-1.785 0-2.719-.548-2.758-.572l.511-.859z"/></symbol><symbol id="instagram" viewBox="0 0 32 32"><path d="M30.819 10.043c-.072-1.633-.335-2.755-.714-3.727a7.547 7.547 0 0 0-1.774-2.723l-.001-.001a7.563 7.563 0 0 0-2.667-1.754l-.052-.018c-.978-.378-2.095-.641-3.727-.713-1.644-.078-2.166-.096-6.336-.096-4.173 0-4.694.018-6.332.09-1.632.072-2.755.337-3.726.714A7.54 7.54 0 0 0 2.765 3.59l-.001.001a7.572 7.572 0 0 0-1.75 2.666l-.018.052c-.38.979-.644 2.095-.716 3.727-.078 1.645-.096 2.166-.096 6.335 0 4.173.018 4.694.09 6.332.072 1.632.337 2.755.714 3.727a7.613 7.613 0 0 0 1.776 2.723l.001.001a7.55 7.55 0 0 0 2.719 1.77c.978.379 2.094.643 3.726.714 1.638.073 2.161.09 6.332.09 4.17 0 4.692-.017 6.331-.09 1.632-.072 2.755-.335 3.726-.714a7.906 7.906 0 0 0 4.477-4.441l.019-.053c.378-.978.643-2.095.714-3.727.072-1.638.09-2.161.09-6.331 0-4.172-.006-4.692-.077-6.331zm-2.767 12.541c-.067 1.501-.319 2.31-.529 2.851a5.124 5.124 0 0 1-2.881 2.905l-.035.012c-.54.21-1.357.462-2.851.529-1.62.072-2.107.09-6.205.09s-4.591-.018-6.205-.09c-1.5-.067-2.31-.319-2.851-.529a4.76 4.76 0 0 1-1.763-1.144l-.001-.001a4.784 4.784 0 0 1-1.136-1.732l-.011-.033c-.21-.54-.461-1.357-.527-2.851-.073-1.62-.09-2.107-.09-6.205s.017-4.59.09-6.205c.065-1.5.317-2.31.527-2.851a4.674 4.674 0 0 1 1.152-1.764 4.782 4.782 0 0 1 1.732-1.135l.033-.011c.54-.21 1.357-.462 2.851-.529 1.62-.072 2.106-.09 6.205-.09 4.105 0 4.59.018 6.205.09 1.5.067 2.31.319 2.851.529a4.72 4.72 0 0 1 1.764 1.146c.509.499.9 1.098 1.146 1.764.21.54.462 1.357.529 2.851.072 1.62.09 2.107.09 6.205s-.018 4.579-.09 6.199z"/><path d="M15.546 8.481a7.893 7.893 0 0 0-7.891 7.892 7.893 7.893 0 0 0 7.891 7.891 7.893 7.893 0 0 0 7.892-7.891 7.893 7.893 0 0 0-7.892-7.892zm0 13.011a5.12 5.12 0 0 1 .001-10.24h.001a5.12 5.12 0 0 1-.001 10.24h-.001zM25.592 8.17a1.843 1.843 0 1 1-3.686 0 1.843 1.843 0 1 1 3.686 0z"/></symbol><symbol id="logo" viewBox="0 0 33 32"><path fill="#89c8fd" style="fill:var(--color2,#89c8fd)" d="M24.242 18.41c0-5.816-4.702-10.531-10.503-10.531S3.236 12.594 3.236 18.41s4.702 10.531 10.503 10.531 10.503-4.715 10.503-10.531z"/><path fill="#60b6ff" style="fill:var(--color3,#60b6ff)" d="M13.739 7.879c-.539 0-1.069.04-1.586.119 5.048.767 8.917 5.137 8.917 10.411 0 5.276-3.869 9.646-8.917 10.412.517.079 1.047.12 1.586.12 5.801 0 10.503-4.715 10.503-10.531S19.54 7.879 13.739 7.879z"/><path fill="#baeb6c" style="fill:var(--color4,#baeb6c)" d="M12.374 11.971c-1.618 1.014-2.831 2.636-1.921 4.461s2.933 1.115 4.803.862c1.871-.253.455 5.526 1.567 6.945s4.247-1.419 3.944-3.245c-.449-2.702-.607-3.65 3.034-5.576l.01-.004c-1.228-4.155-4.942-7.238-9.414-7.515l-.001.015s-.405 3.042-2.023 4.056zm7.946-1.769zm1.284 1.229h.001zM6.762 23.175c-.486-.741.859-2.483 1.163-3.802S6.408 18.156 5.852 17.7c-.556-.457-1.314-2.433-1.871-2.89l-.089-.07a10.53 10.53 0 0 0-.656 3.67v.012a10.51 10.51 0 0 0 4.252 8.452l.028.02.003-.221s.405-1.723-.758-3.498z"/><path fill="#baeb6c" style="fill:var(--color4,#baeb6c)" d="m20.767 20.995-.007-.039c-.221.879-.52 1.649-.9 2.368l.027-.057c.598-.705.997-1.565.879-2.273z"/><path fill="#96d629" style="fill:var(--color5,#96d629)" d="m14.397 7.9-.001.015s-.034.254-.121.639a10.536 10.536 0 0 1 6.751 8.887c.464-.634 1.313-1.25 2.774-2.023l.01-.004c-1.227-4.155-4.942-7.238-9.414-7.515z"/><path fill="#09a66d" style="fill:var(--color1,#09a66d)" d="M13.725 32c-.743 0-1.493-.061-2.242-.185a13.528 13.528 0 0 1-8.8-5.449l-.027-.04A13.386 13.386 0 0 1 .11 18.438c0-.789.068-1.563.198-2.315l-.012.08a.476.476 0 0 1 .939.157v-.002a12.22 12.22 0 0 0-.173 2.078c0 2.755.888 5.302 2.393 7.372l-.025-.036c1.918 2.669 4.805 4.538 8.136 5.095l.073.01c6.871 1.135 13.385-3.532 14.519-10.403.11-.625.173-1.344.173-2.078 0-2.755-.888-5.302-2.393-7.372l.025.036c-1.918-2.669-4.804-4.539-8.135-5.096l-.073-.01a.477.477 0 1 1 .157-.938l-.003-.001a13.529 13.529 0 0 1 8.801 5.449l.027.04a13.386 13.386 0 0 1 2.546 7.888c0 .789-.068 1.563-.198 2.315l.012-.08a13.523 13.523 0 0 1-5.45 8.799l-.04.027a13.486 13.486 0 0 1-7.882 2.545z"/><path fill="#49cb5c" style="fill:var(--color6,#49cb5c)" d="M10.837 11.493c-5.079-.862-8.231-7.257-8.231-7.257S7.692-.762 12.77.1C17.849.961 21 7.357 21 7.357s-5.084 4.998-10.163 4.137z"/><path fill="#07b128" style="fill:var(--color7,#07b128)" d="M12.77.1c-.97-.165-1.939-.115-2.874.072 4.867 1.093 7.869 7.185 7.869 7.185s-3.328 3.271-7.289 4.064c.119.027.239.051.361.073C15.916 12.355 21 7.357 21 7.357S17.849.963 12.77.102z"/><path fill="#09a66d" style="fill:var(--color1,#09a66d)" d="m20.713 6.825-4.967-.838-4.64-5.974c-.37.022-.737.069-1.098.137l4.351 5.603-3.745-.631L7.418.987c-.3.135-.591.279-.873.427L9.23 4.888 3.037 3.842c-.278.243-.431.393-.431.393s.102.207.298.55l6.16 1.039-3.417 2.641c.22.226.451.45.692.667l4.001-3.093 3.965.669-5.393 4.173a8.02 8.02 0 0 0 1.037.4l5.632-4.357 4.97.838c.288-.251.447-.407.447-.407s-.098-.199-.287-.531z"/><path fill="#49cb5c" style="fill:var(--color6,#49cb5c)" d="M24.454 5.286c1.362-3.225 6.083-4.31 6.083-4.31s2.512 4.142 1.149 7.366c-1.361 3.224-6.083 4.31-6.083 4.31s-2.511-4.142-1.149-7.366z"/><path fill="#07b128" style="fill:var(--color7,#07b128)" d="M30.538.976s-1.073.247-2.345.855c.653 1.381 1.686 4.185.703 6.511-.713 1.687-2.345 2.788-3.739 3.455.251.533.447.855.447.855s4.721-1.086 6.083-4.31c1.362-3.224-1.15-7.366-1.15-7.366z"/><path fill="#09a66d" style="fill:var(--color1,#09a66d)" d="m32.073 5.683-3.63 1.523 2.383-5.699c-.17-.337-.289-.531-.289-.531s-.225.052-.59.166l-2.463 5.889-1.528-3.758a6.536 6.536 0 0 0-.724.745l1.731 4.259-1.626 3.887c.159.31.266.487.266.487s.245-.056.637-.181l1.679-4.014 4.153-1.742a6.85 6.85 0 0 0 .001-1.033z"/></symbol><symbol id="search" viewBox="0 0 33 32"><path stroke-linejoin="round" stroke-linecap="round" stroke-width="2" d="M27.933 15.689c0 6.619-5.366 11.985-11.985 11.985S3.963 22.308 3.963 15.689 9.329 3.704 15.948 3.704 27.933 9.07 27.933 15.689zM24.284 24.647l4.699 4.687"/></symbol><symbol id="shopping" viewBox="0 0 32 32"><path fill="#09a66d" style="fill:var(--color1,#09a66d)" d="M11.829 22.412h8.109a.457.457 0 1 0 0-.914h-8.109a.457.457 0 1 0 0 .914zm1.433-10.492h5.429a.93.93 0 0 0 .894-.663l1.139-3.754a.921.921 0 0 0-.145-.83l.002.002a.926.926 0 0 0-.746-.378H19.425l-.83-2.072a1.245 1.245 0 0 0-1.155-.785h-2.924c-.514 0-.969.308-1.16.785l-.829 2.072h-.406a.922.922 0 0 0-.749.378.923.923 0 0 0-.142.834l-.002-.007 1.139 3.754a.932.932 0 0 0 .89.663h.004zm-1.155-4.699c.014-.019 2.487-.002 2.505-.008a.457.457 0 1 0 0-.914h-1.1l.694-1.733a.334.334 0 0 1 .309-.211H17.437c.137 0 .259.083.31.211l.693 1.733h-1.694a.457.457 0 1 0 0 .914c.016 0 3.088-.008 3.1.008.013.018-1.137 3.752-1.137 3.771 0 .041-5.463.008-5.466 0-.005-.02-1.15-3.753-1.136-3.771zm-.278 19.753a.457.457 0 1 0 0 .914h8.109a.457.457 0 1 0 0-.914h-8.109zm12.226-1.372a.457.457 0 0 0-.457-.457H11.83a.457.457 0 1 0 0 .914h11.768a.457.457 0 0 0 .457-.457zm2.286-4.886a.457.457 0 0 0 .457-.457V2.983A2.29 2.29 0 0 0 24.511.696H7.44a2.29 2.29 0 0 0-2.287 2.287v26.646a2.29 2.29 0 0 0 2.287 2.287h17.071a2.29 2.29 0 0 0 2.287-2.287v-7.237a.457.457 0 1 0-.914 0v7.237a1.374 1.374 0 0 1-1.372 1.372H7.441a1.374 1.374 0 0 1-1.372-1.372V2.983c0-.757.615-1.373 1.372-1.373h17.071c.757 0 1.372.616 1.372 1.372v17.275c0 .253.204.457.457.457zm-16.32 2.046c-.226.003-.462.005-.679.006.155-.208.349-.478.592-.824.212-.304.363-.579.402-.865.006-.047.019-.131.019-.176a1.237 1.237 0 0 0-2.449-.239.457.457 0 0 0 .897.179l.001-.003a.32.32 0 0 1 .635.039v.001c.012.164-.072.277-.254.539-.481.687-.767 1.061-.921 1.264-.269.351-.398.81.068.965.06.02 1.268.034 1.701.028a.458.458 0 0 0-.005-.914h-.006zm13.575-3.094H11.829a.457.457 0 1 0 0 .914h11.768a.457.457 0 1 0 0-.914zM9.19 25.146c-.589 0-1.099.419-1.213.997a.457.457 0 0 0 .897.179l.001-.003a.322.322 0 1 1 .315.385.457.457 0 1 0 0 .914h.001a.322.322 0 1 1-.322.322.457.457 0 1 0-.914 0c0 .671.557 1.236 1.235 1.236a1.237 1.237 0 0 0 .959-2.015 1.237 1.237 0 0 0-.959-2.014zm0-6.974a.457.457 0 0 0 .457-.457v-3.042a.457.457 0 0 0-.457-.457h-.65a.457.457 0 1 0 0 .914h.193v2.584c0 .253.204.457.457.457zm2.638-1.213h8.128a.457.457 0 1 0 0-.914h-.02.001-8.128a.457.457 0 1 0 0 .914h.02-.001zm11.768-2.743H11.829a.457.457 0 1 0 0 .914h11.768a.457.457 0 1 0 0-.914z"/></symbol><symbol id="star" viewBox="0 0 32 32"><path fill="#fed42d" style="fill:var(--color8,#fed42d)" d="M31.954 12.329a.939.939 0 0 0-.752-.638l-.005-.001-9.92-1.441-4.436-8.99a.938.938 0 0 0-1.68-.006l-.002.005-4.436 8.99-9.92 1.441a.938.938 0 0 0-.52 1.6l7.178 6.997-1.694 9.88a.938.938 0 0 0 1.365.985l-.005.002L16 26.488l8.873 4.665a.937.937 0 0 0 1.36-.994l.001.006-1.695-9.88 7.179-6.997a.932.932 0 0 0 .235-.968l.002.007z"/><path fill="#fcbf29" style="fill:var(--color9,#fcbf29)" d="M31.954 12.329a.939.939 0 0 0-.752-.638l-.005-.001-9.92-1.441-4.436-8.99a.94.94 0 0 0-.84-.521h-.002V26.49l8.872 4.665a.93.93 0 0 0 .99-.073l-.003.002a.94.94 0 0 0 .372-.923l.001.006-1.695-9.88 7.179-6.997a.932.932 0 0 0 .235-.968l.002.007z"/></symbol><symbol id="twitter" viewBox="0 0 32 32"><path d="M30.848 6.845a13.118 13.118 0 0 1-3.628.995 6.295 6.295 0 0 0 2.757-3.437l.013-.044a12.361 12.361 0 0 1-3.913 1.512l-.081.014a6.296 6.296 0 0 0-10.892 4.303v.004c0 .499.042.978.146 1.435-5.235-.256-9.869-2.765-12.98-6.587a6.267 6.267 0 0 0-.863 3.183v.001a6.31 6.31 0 0 0 2.798 5.234 6.195 6.195 0 0 1-2.877-.792l.031.016v.069a6.33 6.33 0 0 0 5.004 6.18l.041.007a6.245 6.245 0 0 1-1.651.207l-.1.001c-.387 0-.765-.039-1.129-.115l.036.006c.817 2.495 3.132 4.328 5.885 4.388a12.575 12.575 0 0 1-7.794 2.685h-.014.001c-.517 0-1.012-.023-1.508-.086 2.713 1.772 6.036 2.826 9.604 2.826h.061-.003c11.589 0 17.925-9.6 17.925-17.921 0-.279-.01-.548-.023-.814a12.673 12.673 0 0 0 3.125-3.225l.029-.045z"/></symbol><symbol id="user" viewBox="0 0 32 32"><path fill="#09a66d" style="fill:var(--color1,#09a66d)" d="M16.002 0c-4.571 0-8.308 3.737-8.308 8.308s3.737 8.309 8.308 8.309c4.572 0 8.309-3.737 8.309-8.309C24.31 3.737 20.574 0 16.002 0zM30.26 23.256a7.746 7.746 0 0 0-.85-1.547l.016.024c-1.669-2.468-4.245-4.1-7.147-4.5-.363-.036-.762.037-1.052.255a8.675 8.675 0 0 1-5.186 1.705H16h.002-.036a8.696 8.696 0 0 1-5.211-1.723l.023.017a1.348 1.348 0 0 0-1.06-.252l.008-.001a10.278 10.278 0 0 0-7.125 4.461l-.023.037a8.768 8.768 0 0 0-.812 1.466l-.022.058c-.109.218-.073.472.036.69.29.508.653 1.016.98 1.45.508.69 1.052 1.307 1.669 1.887.507.508 1.088.98 1.669 1.452A16.318 16.318 0 0 0 15.93 32h.038-.002c3.556 0 7.002-1.125 9.868-3.265.615-.466 1.16-.941 1.67-1.451.58-.581 1.16-1.198 1.668-1.887.363-.472.69-.943.98-1.451.181-.218.217-.472.109-.69z"/></symbol><symbol id="prev-next" viewBox="0 0 33 33"><path d="m18.358 16.576-6.6-6.6 1.886-1.885 8.485 8.485-8.485 8.485-1.886-1.885 6.6-6.6Z"/></symbol><symbol id="close" viewBox="0 0 24 24"><path stroke-linecap="round" stroke-linejoin="round" stroke-width="1.5" d="M12 22c5.5 0 10-4.5 10-10S17.5 2 12 2 2 6.5 2 12s4.5 10 10 10Zm-2.83-7.17 5.66-5.66m0 5.66L9.17 9.17"/></symbol><symbol id="person-black" viewBox="0 0 32 32"><path d="M16 16c2.947 0 5.333-2.387 5.333-5.333S18.946 5.334 16 5.334c-2.947 0-5.333 2.387-5.333 5.333S13.054 16 16 16zm0 2.667c-3.56 0-10.667 1.787-10.667 5.333v1.333c0 .733.6 1.333 1.333 1.333h18.667c.733 0 1.333-.6 1.333-1.333V24c0-3.547-7.107-5.333-10.667-5.333z"/></symbol><symbol id="phone-black" viewBox="0 0 32 32"><path d="m24.882 19.773-3.268-.373a2.561 2.561 0 0 0-2.11.733L17.137 22.5a19.357 19.357 0 0 1-8.478-8.478l2.38-2.38a2.561 2.561 0 0 0 .733-2.11l-.373-3.242a2.575 2.575 0 0 0-2.56-2.277H6.613c-1.454 0-2.663 1.209-2.573 2.663.682 10.987 9.469 19.761 20.443 20.443 1.454.09 2.663-1.119 2.663-2.573V22.32a2.549 2.549 0 0 0-2.264-2.547z"/></symbol><symbol id="email-black" viewBox="0 0 32 32"><path d="M26.667 5.333H5.334A2.663 2.663 0 0 0 2.681 8l-.013 16c0 1.467 1.2 2.667 2.667 2.667h21.333c1.467 0 2.667-1.2 2.667-2.667V8c0-1.467-1.2-2.667-2.667-2.667zM26.133 11l-9.427 5.893a1.346 1.346 0 0 1-1.413 0L5.866 11a1.132 1.132 0 1 1 1.2-1.92l8.933 5.587 8.933-5.587a1.132 1.132 0 1 1 1.2 1.92z"/></symbol><symbol id="icon-check" viewBox="0 0 34 32"><path d="m8.442 16.537-.147-.14-2.205 2.088 7.767 7.41 16.318-15.567-2.19-2.089-14.128 13.465-5.416-5.167z"/></symbol></defs></svg>