<svg aria-hidden="true" style="position: absolute; width: 0; height: 0; overflow: hidden;" version="1.1" xmlns="http://www.w3.org/2000/svg" xmlns:xlink="http://www.w3.org/1999/xlink">
<defs>
<symbol id="arrow" viewBox="0 0 14 32">
<path d="M6.334 31.624c0.17 0.171 0.406 0.276 0.666 0.276s0.496-0.105 0.666-0.276v0l5.99-5.989c0.17-0.17 0.276-0.406 0.276-0.666 0-0.52-0.422-0.942-0.942-0.942-0.26 0-0.495 0.105-0.666 0.276l-5.323 5.325-5.325-5.325c-0.17-0.17-0.406-0.276-0.666-0.276-0.52 0-0.942 0.422-0.942 0.942 0 0.26 0.105 0.495 0.276 0.666v0l5.991 5.989zM6.058 0.84v30.118h1.882v-30.118h-1.882z"></path>
</symbol>
<symbol id="buy" viewBox="0 0 33 32">
<path stroke-linejoin="round" stroke-linecap="round" stroke-miterlimit="4" stroke-width="2" d="M10.156 26.427c0.541 0.029 0.969 0.474 0.969 1.020s-0.428 0.991-0.967 1.020l-0.003 0c-0.563 0-1.020-0.457-1.020-1.020s0.457-1.020 1.020-1.020v0zM25.159 26.427c0.564 0 1.021 0.457 1.021 1.021s-0.457 1.021-1.021 1.021c-0 0-0 0-0.001 0h0c-0.564-0-1.021-0.457-1.021-1.021s0.457-1.021 1.021-1.021c0 0 0 0 0.001 0h-0z"></path>
<path stroke-linejoin="round" stroke-linecap="round" stroke-miterlimit="4" stroke-width="2" d="M3.925 4.333l2.773 0.48 1.284 15.297c0.106 1.239 1.137 2.204 2.394 2.204 0.001 0 0.001 0 0.002 0h14.549c1.195 0 2.208-0.877 2.38-2.061l1.267-8.744c0.012-0.077 0.019-0.167 0.019-0.257 0-0.987-0.8-1.787-1.787-1.787-0.001 0-0.002 0-0.003 0h-19.66M19.093 14.396h3.697"></path>
</symbol>
<symbol id="delivery-man" viewBox="0 0 32 32">
<path fill="#09a66d" style="fill: var(--color1, #09a66d)" d="M29.929 10.33h-5.294c-0.913 0-1.657 0.744-1.657 1.658v6.094h-1.98c0.109-0.4 0.151-0.873 0.124-1.421-0.043-2.321-0.464-4.277-1.252-5.813-0.612-1.194-1.325-1.909-1.938-2.337 0.719-0.739 1.135-1.79 1.135-3.003 0-2.182-1.741-3.957-3.88-3.957s-3.88 1.775-3.88 3.957c0 0.252 0.204 0.457 0.457 0.457h0.311c-0.028 0.157-0.043 0.338-0.043 0.523 0 1.533 1.086 2.812 2.531 3.11l0.021 0.004c-0.152 0.566-0.228 1.232-0.228 1.99l-1.14 0.98-2.775 0.225-3.202-1.058c-0.293-0.098-0.626-0.208-0.915 0-0.284 0.205-0.284 0.564-0.284 0.682v2.38c0 0.253 0.205 0.457 0.457 0.457h0.544l-0.835 2.885c-0.011 0.038-0.018 0.082-0.018 0.127 0 0.253 0.205 0.457 0.457 0.457 0.207 0 0.382-0.138 0.439-0.327l0.001-0.003 0.909-3.14h1.3c-1.617 4.931-0.695 8.222 0.724 11.554h-0.823l-3.423-3.828 0.724-2.501c0.011-0.038 0.018-0.082 0.018-0.127 0-0.253-0.205-0.457-0.457-0.457-0.207 0-0.382 0.138-0.439 0.327l-0.001 0.003-0.692 2.392c-0.019-0-0.041-0-0.063-0-2.174 0-3.996 1.508-4.476 3.535l-0.006 0.031c-0.007 0.031-0.012 0.066-0.012 0.102 0 0.216 0.15 0.398 0.352 0.445l0.003 0.001 0.649 0.149c-0.010 0.099-0.016 0.214-0.016 0.331 0 1.936 1.569 3.506 3.505 3.506h0c0.649 0 1.287-0.182 1.851-0.535 0.649-0.409 1.145-1.009 1.414-1.721l0.008-0.024 0.512 0.117c0.153 0.036 0.297 0.055 0.443-0.023 0.131-0.074 0.225-0.199 0.257-0.348l0.001-0.003c0.032-0.15 0.056-0.302 0.073-0.456h9.565c0.306 1.902 1.924 3.335 3.856 3.335s3.551-1.433 3.856-3.335h0.35l0.085 0.001c0.13 0 0.32-0.014 0.475-0.172 0.101-0.105 0.163-0.248 0.163-0.405 0-0.014-0-0.028-0.001-0.042l0 0.002c-0.013-0.446-0.081-0.871-0.196-1.275l0.009 0.037c0.364-2.212 0.014-3.559-0.506-4.613 0.329-0.215 0.546-0.586 0.546-1.008v-1.257h2.31c0.913 0 1.657-0.744 1.657-1.659v-5.35c-0.001-0.915-0.742-1.656-1.657-1.658h-0zM6.226 29.411c-0.586 0.367-1.279 0.484-1.951 0.329-1.158-0.275-2.006-1.301-2.006-2.524 0-0.043 0.001-0.086 0.003-0.128l-0 0.006 4.961 1.141c-0.213 0.494-0.561 0.896-0.996 1.171l-0.011 0.006zM8.513 27.59l-7.113-1.637c0.532-1.422 1.879-2.417 3.459-2.417 0.064 0 0.128 0.002 0.192 0.005l-0.009-0 3.485 3.896c-0.004 0.064-0.008 0.117-0.014 0.17l0.001-0.016zM15.421 19.621c-0.133 0.35-0.133 0.78-0.133 1.378v1.726h-1.674v-2.368c0-2.677 1.46-3.153 2.116-3.233h4.485c-0.018 0.608-0.155 1.040-0.415 1.314-0.304 0.32-0.823 0.475-1.587 0.476l-1.641 0.002c-0.585 0-0.973 0.237-1.15 0.704zM15.288 23.641v1.091h-3.261c0.037-0.339 0.142-0.601 0.315-0.782 0.258-0.269 0.62-0.31 0.814-0.31h2.132zM20.194 16.211h-4.159c-0.145-0.434-0.296-1.002-0.418-1.581l-0.020-0.112 1.264-0.82c0.69-0.449 1.049-1.082 0.985-1.738-0.069-0.603-0.46-1.101-0.996-1.32l-0.011-0.004c-0.507-0.203-1.054-0.139-1.535 0.169 0.039-0.437 0.114-0.827 0.221-1.16 0.195-0.020 0.389-0.058 0.578-0.114 0.404-0.094 0.76-0.24 1.085-0.433l-0.018 0.010c0.88 0.526 2.818 2.233 3.023 7.102zM12.256 5.050c0.215-1.46 1.448-2.583 2.931-2.583 1.635 0 2.965 1.364 2.965 3.042 0 1.364-0.654 2.464-1.709 2.948v-2.407c0-0.417-0.159-0.929-0.919-0.997-0.011-0.001-0.024-0.002-0.038-0.002-0.001 0-0.003 0-0.004 0h-3.227zM12.947 6.492c0-0.18 0.020-0.357 0.061-0.527h2.453c0.025 0.003 0.047 0.006 0.068 0.010l-0.005-0.001c0.003 0.022 0.005 0.046 0.005 0.072 0 0.001 0 0.002 0 0.003v-0 2.675c-0.109 0.016-0.219 0.024-0.328 0.024h-0.003c-1.244-0.004-2.251-1.012-2.251-2.256v-0zM12.354 13.56l1.083-0.087c0.101-0.008 0.191-0.048 0.262-0.11l-0.001 0.001 1.955-1.681c0.189-0.164 0.39-0.247 0.588-0.247 0.087 0 0.173 0.016 0.258 0.050 0.242 0.097 0.414 0.318 0.437 0.563 0.030 0.309-0.173 0.622-0.573 0.882l-2.178 1.413h-1.831v-0.784zM10.421 13.716l1.018-0.082v0.71h-1.182c-0.154 0-0.191-0.127-0.195-0.234-0.003-0.061 0.003-0.364 0.36-0.394zM9.339 13.401c-0.121 0.197-0.192 0.435-0.192 0.691 0 0.088 0.009 0.174 0.025 0.258l-0.001-0.008v0.004h-2.216v-1.736l2.386 0.788c0 0.002 0 0.003-0.002 0.004zM10.259 15.259h4.061c0 0 0.001 0 0.002 0 0.092 0 0.178-0.027 0.25-0.074l-0.002 0.001 0.206-0.135c0.1 0.44 0.213 0.869 0.336 1.273-0.932 0.276-2.412 1.165-2.412 4.034v2.413c-0.403 0.077-0.751 0.272-1.018 0.546l-0 0c-0.334 0.351-0.525 0.825-0.571 1.414h-0.923c-0.93-2.679-1.283-5.53 0.072-9.473zM11.013 26.812c-0.076-0.147-0.24-0.531-0.397-0.918l-0.088-0.247h4.748c0.615 0 0.927-0.28 0.927-0.833v-3.356h3.61c0.253 0 0.458-0.205 0.458-0.458s-0.205-0.458-0.458-0.458v0h-3.606c0.005-0.259 0.022-0.472 0.070-0.597 0.023-0.062 0.042-0.114 0.293-0.114l1.642-0.002c1.028-0.002 1.764-0.25 2.249-0.761 0.023-0.023 0.044-0.048 0.066-0.073h6.178v1.257c0 0.158-0.133 0.29-0.289 0.29h-4.553c-0.253 0-0.457 0.205-0.457 0.457s0.205 0.457 0.457 0.457h4.283c0.362 0.671 0.687 1.506 0.667 2.825-0.908-1.257-2.37-2.065-4.020-2.065-0.004 0-0.008 0-0.011 0h0.001c-0.004 0-0.008-0-0.013-0-1.376 0-2.62 0.564-3.514 1.474l-0.001 0.001c-0.803 0.812-1.332 1.896-1.436 3.102l-0.001 0.019-6.804-0.002zM22.839 30.149c-1.43 0-2.636-1.030-2.927-2.421h5.854c-0.292 1.391-1.498 2.421-2.927 2.421zM26.286 26.814h-7.55c0.225-2.068 1.954-3.682 4.047-3.682 1.837 0 3.38 1.211 3.892 2.907 0.070 0.222 0.125 0.485 0.154 0.755l0.002 0.019h-0.544zM30.672 17.339c-0 0.41-0.332 0.742-0.742 0.743h-6.036v-2.363h6.779v1.618zM30.672 14.805h-6.779v-0.973h6.779v0.973zM30.672 12.918h-6.779v-0.93c0-0.41 0.332-0.743 0.741-0.743h5.295c0.409 0 0.741 0.333 0.741 0.743v0.93z"></path>
</symbol>
<symbol id="facebook" viewBox="0 0 32 32">
<path d="M17.408 11.571v-3.84c0-1.060 0.86-1.92 1.92-1.92v0h1.92v-4.8h-3.84c-3.181 0-5.76 2.579-5.76 5.76v0 4.8h-3.84v4.8h3.84v15.36h5.76v-15.36h3.84l1.92-4.8h-5.76z"></path>
</symbol>
<symbol id="fast-time" viewBox="0 0 32 32">
<path fill="#09a66d" style="fill: var(--color1, #09a66d)" d="M2.737 9.795h4.823c0.244-0.010 0.438-0.211 0.438-0.457s-0.194-0.447-0.438-0.457l-0.001-0h-4.823c-0.006-0-0.012-0-0.019-0-0.253 0-0.457 0.205-0.457 0.457s0.205 0.457 0.457 0.457c0.007 0 0.013-0 0.020-0l-0.001 0zM7.395 11.997h-1.906c-0.253 0-0.457 0.205-0.457 0.457s0.205 0.457 0.457 0.457h1.906c0.253 0 0.457-0.205 0.457-0.457s-0.205-0.457-0.457-0.457v0zM0.824 15.169h4.665c0.253 0 0.457-0.205 0.457-0.457s-0.205-0.457-0.457-0.457h-4.665c-0.253 0-0.457 0.205-0.457 0.457s0.205 0.457 0.457 0.457v0zM8.017 23.276c0-0.253-0.205-0.457-0.457-0.457v0h-4.823c-0.253 0-0.457 0.205-0.457 0.457s0.205 0.457 0.457 0.457h4.823c0.253 0 0.457-0.205 0.457-0.457v0zM7.395 19.703h-1.906c-0.253 0-0.457 0.205-0.457 0.457s0.205 0.457 0.457 0.457h1.906c0.253 0 0.457-0.205 0.457-0.457s-0.205-0.457-0.457-0.457v0zM5.947 17.903c0 0 0 0 0 0 0-0.253-0.205-0.457-0.457-0.457-0 0-0.001 0-0.001 0h-4.665c-0.253 0-0.457 0.205-0.457 0.457s0.205 0.457 0.457 0.457h4.665c0.253 0 0.457-0.205 0.457-0.457v0zM19.85 10.809c0.253 0 0.457-0.205 0.457-0.457v-0.698c0-0.253-0.205-0.457-0.457-0.457s-0.457 0.205-0.457 0.457v0 0.698c0 0.253 0.204 0.457 0.457 0.457zM24.878 11.279c-0.083-0.083-0.197-0.134-0.323-0.134s-0.24 0.051-0.323 0.134v0l-0.494 0.494c-0.083 0.083-0.134 0.197-0.134 0.323 0 0.253 0.205 0.458 0.458 0.458 0.127 0 0.241-0.051 0.324-0.134v0l0.492-0.493c0.083-0.083 0.134-0.197 0.134-0.323s-0.051-0.241-0.134-0.323v0zM25.805 15.85c-0.006-0-0.012-0-0.019-0-0.253 0-0.457 0.205-0.457 0.457s0.205 0.457 0.457 0.457c0.007 0 0.013-0 0.020-0l-0.001 0h0.698c0.006 0 0.012 0 0.019 0 0.253 0 0.457-0.205 0.457-0.457s-0.205-0.457-0.457-0.457c-0.007 0-0.013 0-0.020 0l0.001-0h-0.698zM24.385 20.195c-0.082-0.078-0.193-0.127-0.316-0.127-0.253 0-0.457 0.205-0.457 0.457 0 0.122 0.048 0.234 0.126 0.316l-0-0 0.494 0.494c0.082 0.078 0.193 0.126 0.316 0.126 0.253 0 0.457-0.205 0.457-0.457 0-0.123-0.048-0.234-0.127-0.316l-0.493-0.493zM19.393 22.263v0.698c0 0.253 0.205 0.457 0.457 0.457s0.457-0.205 0.457-0.457v0-0.698c0-0.253-0.205-0.457-0.457-0.457s-0.457 0.205-0.457 0.457v0zM15.316 20.195l-0.493 0.493c-0.078 0.082-0.127 0.193-0.127 0.316 0 0.253 0.205 0.457 0.457 0.457 0.122 0 0.234-0.048 0.316-0.126l-0 0 0.494-0.494c0.078-0.082 0.126-0.193 0.126-0.316 0-0.253-0.205-0.457-0.457-0.457-0.123 0-0.234 0.048-0.316 0.127l0-0zM13.197 15.85c-0.006-0-0.012-0-0.019-0-0.253 0-0.457 0.205-0.457 0.457s0.205 0.457 0.457 0.457c0.007 0 0.013-0 0.020-0l-0.001 0h0.698c0.244-0.010 0.438-0.211 0.438-0.457s-0.194-0.447-0.438-0.457l-0.001-0h-0.698zM15.963 11.773l-0.494-0.494c-0.082-0.078-0.193-0.126-0.316-0.126-0.253 0-0.457 0.205-0.457 0.457 0 0.123 0.048 0.234 0.127 0.316l0.493 0.493c0.083 0.083 0.197 0.134 0.323 0.134 0.253 0 0.457-0.205 0.457-0.457 0-0.126-0.051-0.241-0.134-0.323v0zM22.309 16.307c-0-0.252-0.205-0.457-0.457-0.457 0 0 0 0 0 0h-1.545v-3.395c0-0.006 0-0.012 0-0.019 0-0.253-0.205-0.457-0.457-0.457s-0.457 0.205-0.457 0.457c0 0.007 0 0.013 0 0.020l-0-0.001v3.852c0 0.253 0.204 0.457 0.457 0.457h2.002c0 0 0 0 0 0 0.252 0 0.457-0.204 0.457-0.457v-0z"></path>
<path fill="#09a66d" style="fill: var(--color1, #09a66d)" d="M28.521 16.232c0.241-0.015 0.43-0.214 0.43-0.457 0-0.010-0-0.019-0.001-0.029l0 0.001c-0.291-4.8-4.289-8.559-9.101-8.559-5.028 0-9.118 4.090-9.118 9.118s4.090 9.118 9.118 9.118c4.503 0 8.347-3.301 9.016-7.753 0.003-0.020 0.005-0.044 0.005-0.068 0-0.253-0.205-0.458-0.458-0.458-0.229 0-0.418 0.168-0.452 0.387l-0 0.003c-0.6 4.001-4.055 6.974-8.111 6.974-4.524 0-8.203-3.68-8.203-8.203s3.679-8.203 8.203-8.203c4.329 0 7.925 3.381 8.187 7.698 0.016 0.252 0.232 0.444 0.484 0.429z"></path>
<path fill="#09a66d" style="fill: var(--color1, #09a66d)" d="M19.85 4.571c-1.608 0-3.184 0.333-4.635 0.958h-8.069c-0.253 0-0.457 0.205-0.457 0.457s0.205 0.457 0.457 0.457h6.348c-0.891 0.578-1.661 1.235-2.337 1.978l-0.009 0.010c-0.069 0.080-0.112 0.185-0.112 0.3 0 0.253 0.205 0.457 0.457 0.457 0.131 0 0.249-0.055 0.332-0.143l0-0c1.99-2.188 4.846-3.556 8.023-3.559h0.001c5.966 0 10.821 4.855 10.821 10.821s-4.855 10.821-10.821 10.821-10.821-4.855-10.821-10.821c0-2.089 0.597-4.117 1.726-5.865 0.050-0.072 0.079-0.161 0.079-0.258 0-0.253-0.205-0.457-0.457-0.457-0.164 0-0.308 0.087-0.389 0.217l-0.001 0.002c-1.174 1.793-1.873 3.989-1.873 6.348 0 0.005 0 0.009 0 0.014v-0.001c0 4.133 2.146 7.772 5.384 9.864h-6.352c-0.253 0-0.457 0.205-0.457 0.457s0.205 0.457 0.457 0.457h8.062c1.364 0.605 2.956 0.958 4.629 0.958 0.004 0 0.009 0 0.013 0h-0.001c6.472 0 11.736-5.264 11.736-11.736 0-6.47-5.264-11.735-11.736-11.735z"></path>
</symbol>
<symbol id="harvest" viewBox="0 0 32 32">
<path fill="#09a66d" style="fill: var(--color1, #09a66d)" d="M22.472 10h1.45c1.207 0 2.217-0.86 2.45-2h-1.45c-1.207 0-2.217 0.86-2.45 2zM11 5.5c0.050 0 0.098 0.006 0.147 0.008l0.351-3.51c0.002-0.295-0.201-0.498-0.45-0.498h-0.095c0 0 0 0 0 0-0.25 0-0.452 0.202-0.453 0.452v0l0.354 3.556c0.049-0.002 0.097-0.008 0.146-0.008zM7 16c0-0.17 0.018-0.337 0.045-0.5h-1.045v0.342c0.375 0.179 0.713 0.42 1 0.713v-0.555zM6.595 3.778l1.71 2.518c0.135-0.086 0.273-0.166 0.416-0.24l-1.029-2.828c-0.076-0.217-0.279-0.37-0.518-0.37-0.090 0-0.175 0.022-0.25 0.060l0.003-0.001-0.125 0.062c-0.181 0.092-0.303 0.277-0.303 0.49 0 0.116 0.036 0.223 0.097 0.312l-0.001-0.002zM8.691 14.5h5.569l0.656-3.148c0.056-0.268 0.084-0.543 0.084-0.816 0-2.242-1.794-4.036-4-4.036s-4 1.794-4 4c0 0.31 0.029 0.584 0.084 0.852l0.578 2.773c0.553-0.688 1.394-1.125 2.338-1.125h0v1c-0.502 0-0.957 0.193-1.309 0.5zM12.5 8.5h1v1h-1v-1zM12.5 10.5h1v1h-1v-1zM12.5 12.5h1v1h-1v-1zM5.5 18.5h1.45c-0.242-1.149-1.247-1.999-2.45-2h-1.45c0.233 1.14 1.243 2 2.45 2zM15.405 3.777c0.059-0.086 0.094-0.193 0.094-0.308 0-0.214-0.122-0.399-0.3-0.489l-0.003-0.001-0.124-0.063c-0.072-0.037-0.157-0.059-0.247-0.059-0.213 0-0.398 0.122-0.488 0.301l-0.001 0.003c-0.009 0.018-0.019 0.039-0.028 0.062l-0.001 0.004-1.027 2.828c0.143 0.074 0.281 0.154 0.415 0.24l1.711-2.518zM14.492 24.5h14.008v-3h-14.674c0.442 0.928 0.666 1.949 0.666 3zM26.5 22.5h1v1h-1v-1zM13.232 28.5h13.768c0.827 0 1.5-0.673 1.5-1.5v-1.5h-14.072c-0.17 1.138-0.593 2.154-1.21 3.021l0.014-0.021zM26.5 26.5h1v1h-1v-1zM8.071 15.5c-0.043 0.149-0.069 0.321-0.071 0.499v0.501h22.5v-1h-22.429zM8 18.933c0.1-0.024 0.201-0.050 0.293-0.089 0.449-0.197 0.973-0.312 1.524-0.312 1.146 0 2.175 0.496 2.886 1.285l0.003 0.003c0.194 0.215 0.367 0.444 0.531 0.678h15.263v-3h-20.5v1.434zM26.5 18.5h1v1h-1v-1z"></path>
<path fill="#09a66d" style="fill: var(--color1, #09a66d)" d="M11.963 20.49c-0.536-0.585-1.303-0.951-2.155-0.951-0.405 0-0.79 0.082-1.141 0.231l0.019-0.007c-0.198 0.085-0.429 0.153-0.669 0.191l-0.017 0.002v0.942c0.496-0.185 0.968-0.575 1.147-0.753l0.707 0.708c-0.118 0.118-1.18 1.147-2.354 1.147-1.173 0-2.237-1.030-2.354-1.147l0.707-0.708c0.179 0.178 0.65 0.567 1.147 0.753v-1.398h-1.5c-0.17 0-0.335-0.016-0.497-0.040-0.702 0.050-1.442 0.442-1.989 1.055-0.94 1.053-1.514 2.45-1.514 3.981 0 0.002 0 0.003 0 0.005v-0c0 1.646 0.654 3.182 1.84 4.324 1.071 1.037 2.533 1.676 4.144 1.676 0.090 0 0.179-0.002 0.268-0.006l-0.013 0c3.090-0.12 5.619-2.633 5.756-5.723 0.004-0.083 0.007-0.181 0.007-0.279 0-1.542-0.584-2.948-1.543-4.008l0.005 0.005zM7.5 29.5c-2.757 0-5-2.243-5-5h1c0 2.205 1.795 4 4 4v1zM26.385 14.5c-0.255-0.975-0.721-1.819-1.349-2.515l0.005 0.005c-0.536-0.585-1.303-0.95-2.155-0.95-0.405 0-0.79 0.082-1.141 0.231l0.019-0.007c-0.067 0.029-0.154 0.062-0.244 0.090l-0.020 0.005v-4.359c0-0.827 0.673-1.5 1.5-1.5h0.5v-1h-0.5c-1.38 0.002-2.498 1.12-2.5 2.5v4.359c-0.11-0.033-0.197-0.066-0.283-0.102l0.019 0.007c-0.331-0.142-0.717-0.224-1.122-0.224-0.852 0-1.62 0.365-2.153 0.948l-0.002 0.002c-0.623 0.69-1.090 1.535-1.336 2.468l-0.009 0.042h10.771zM18.753 12.069c0.008 0.004 0.765 0.431 2.247 0.431s2.239-0.427 2.246-0.431l0.51 0.86c-0.038 0.023-0.972 0.571-2.756 0.571-1.785 0-2.719-0.548-2.758-0.572l0.511-0.859z"></path>
</symbol>
<symbol id="instagram" viewBox="0 0 32 32">
<path d="M30.819 10.043c-0.072-1.633-0.335-2.755-0.714-3.727-0.407-1.066-1.011-1.975-1.774-2.723l-0.001-0.001c-0.748-0.761-1.655-1.363-2.667-1.754l-0.052-0.018c-0.978-0.378-2.095-0.641-3.727-0.713-1.644-0.078-2.166-0.096-6.336-0.096-4.173 0-4.694 0.018-6.332 0.090-1.632 0.072-2.755 0.337-3.726 0.714-1.068 0.407-1.977 1.012-2.725 1.775l-0.001 0.001c-0.759 0.748-1.36 1.655-1.75 2.666l-0.018 0.052c-0.38 0.979-0.644 2.095-0.716 3.727-0.078 1.645-0.096 2.166-0.096 6.335 0 4.173 0.018 4.694 0.090 6.332 0.072 1.632 0.337 2.755 0.714 3.727 0.41 1.066 1.014 1.974 1.776 2.723l0.001 0.001c0.768 0.781 1.699 1.386 2.719 1.77 0.978 0.379 2.094 0.643 3.726 0.714 1.638 0.073 2.161 0.090 6.332 0.090 4.17 0 4.692-0.017 6.331-0.090 1.632-0.072 2.755-0.335 3.726-0.714 2.071-0.816 3.679-2.424 4.477-4.441l0.019-0.053c0.378-0.978 0.643-2.095 0.714-3.727 0.072-1.638 0.090-2.161 0.090-6.331 0-4.172-0.006-4.692-0.077-6.331zM28.052 22.584c-0.067 1.501-0.319 2.31-0.529 2.851-0.529 1.344-1.572 2.388-2.881 2.905l-0.035 0.012c-0.54 0.21-1.357 0.462-2.851 0.529-1.62 0.072-2.107 0.090-6.205 0.090s-4.591-0.018-6.205-0.090c-1.5-0.067-2.31-0.319-2.851-0.529-0.692-0.258-1.281-0.649-1.763-1.144l-0.001-0.001c-0.496-0.484-0.887-1.073-1.136-1.732l-0.011-0.033c-0.21-0.54-0.461-1.357-0.527-2.851-0.073-1.62-0.090-2.107-0.090-6.205s0.017-4.59 0.090-6.205c0.065-1.5 0.317-2.31 0.527-2.851 0.246-0.666 0.636-1.271 1.152-1.764 0.484-0.496 1.073-0.886 1.732-1.135l0.033-0.011c0.54-0.21 1.357-0.462 2.851-0.529 1.62-0.072 2.106-0.090 6.205-0.090 4.105 0 4.59 0.018 6.205 0.090 1.5 0.067 2.31 0.319 2.851 0.529 0.666 0.246 1.271 0.635 1.764 1.146 0.509 0.499 0.9 1.098 1.146 1.764 0.21 0.54 0.462 1.357 0.529 2.851 0.072 1.62 0.090 2.107 0.090 6.205s-0.018 4.579-0.090 6.199z"></path>
<path d="M15.546 8.481c-4.358 0.001-7.89 3.534-7.891 7.892v0c0.001 4.358 3.534 7.89 7.891 7.891h0c4.358-0.001 7.891-3.533 7.892-7.891v-0c-0.001-4.359-3.534-7.892-7.892-7.892h-0zM15.546 21.492c-2.827-0.001-5.119-2.293-5.119-5.12s2.292-5.12 5.12-5.12c0 0 0.001 0 0.001 0h-0c2.827 0.001 5.119 2.293 5.119 5.12s-2.292 5.12-5.12 5.12c-0 0-0.001 0-0.001 0h0zM25.592 8.17c0 1.018-0.825 1.843-1.843 1.843s-1.843-0.825-1.843-1.843v0c0-1.018 0.825-1.843 1.843-1.843s1.843 0.825 1.843 1.843v0z"></path>
</symbol>
<symbol id="logo" viewBox="0 0 33 32">
<path fill="#89c8fd" style="fill: var(--color2, #89c8fd)" d="M24.242 18.41c0-5.816-4.702-10.531-10.503-10.531s-10.503 4.715-10.503 10.531 4.702 10.531 10.503 10.531c5.801 0 10.503-4.715 10.503-10.531z"></path>
<path fill="#60b6ff" style="fill: var(--color3, #60b6ff)" d="M13.739 7.879c-0.539 0-1.069 0.040-1.586 0.119 5.048 0.767 8.917 5.137 8.917 10.411 0 5.276-3.869 9.646-8.917 10.412 0.517 0.079 1.047 0.12 1.586 0.12 5.801 0 10.503-4.715 10.503-10.531s-4.702-10.531-10.503-10.531z"></path>
<path fill="#baeb6c" style="fill: var(--color4, #baeb6c)" d="M12.374 11.971c-1.618 1.014-2.831 2.636-1.921 4.461s2.933 1.115 4.803 0.862c1.871-0.253 0.455 5.526 1.567 6.945s4.247-1.419 3.944-3.245c-0.449-2.702-0.607-3.65 3.034-5.576l0.010-0.004c-1.228-4.155-4.942-7.238-9.414-7.515l-0.001 0.015s-0.405 3.042-2.023 4.056zM20.32 10.202v0zM21.604 11.431h0.001zM6.762 23.175c-0.486-0.741 0.859-2.483 1.163-3.802s-1.517-1.217-2.073-1.673c-0.556-0.457-1.314-2.433-1.871-2.89l-0.089-0.070c-0.424 1.143-0.656 2.379-0.656 3.67 0 0.004 0 0.008 0 0.012 0 3.462 1.672 6.534 4.252 8.452l0.028 0.020 0.003-0.221s0.405-1.723-0.758-3.498z"></path>
<path fill="#baeb6c" style="fill: var(--color4, #baeb6c)" d="M20.767 20.995l-0.007-0.039c-0.221 0.879-0.52 1.649-0.9 2.368l0.027-0.057c0.598-0.705 0.997-1.565 0.879-2.273z"></path>
<path fill="#96d629" style="fill: var(--color5, #96d629)" d="M14.397 7.9l-0.001 0.015s-0.034 0.254-0.121 0.639c3.683 1.394 6.379 4.803 6.751 8.887 0.464-0.634 1.313-1.25 2.774-2.023l0.010-0.004c-1.227-4.155-4.942-7.238-9.414-7.515z"></path>
<path fill="#09a66d" style="fill: var(--color1, #09a66d)" d="M13.725 32c-0.743 0-1.493-0.061-2.242-0.185-3.661-0.61-6.765-2.619-8.8-5.449l-0.027-0.040c-1.592-2.187-2.546-4.926-2.546-7.888 0-0.789 0.068-1.563 0.198-2.315l-0.012 0.080c0.045-0.22 0.237-0.384 0.467-0.384 0.263 0 0.476 0.213 0.476 0.476 0 0.022-0.002 0.044-0.004 0.065l0-0.002c-0.11 0.625-0.173 1.344-0.173 2.078 0 2.755 0.888 5.302 2.393 7.372l-0.025-0.036c1.918 2.669 4.805 4.538 8.136 5.095l0.073 0.010c6.871 1.135 13.385-3.532 14.519-10.403 0.11-0.625 0.173-1.344 0.173-2.078 0-2.755-0.888-5.302-2.393-7.372l0.025 0.036c-1.918-2.669-4.804-4.539-8.135-5.096l-0.073-0.010c-0.238-0.028-0.422-0.229-0.422-0.473 0-0.263 0.213-0.476 0.476-0.476 0.035 0 0.070 0.004 0.103 0.011l-0.003-0.001c3.661 0.609 6.765 2.619 8.801 5.449l0.027 0.040c1.592 2.187 2.546 4.926 2.546 7.888 0 0.789-0.068 1.563-0.198 2.315l0.012-0.080c-0.61 3.661-2.619 6.764-5.45 8.799l-0.040 0.027c-2.333 1.671-5.069 2.545-7.882 2.545z"></path>
<path fill="#49cb5c" style="fill: var(--color6, #49cb5c)" d="M10.837 11.493c-5.079-0.862-8.231-7.257-8.231-7.257s5.086-4.998 10.164-4.136c5.079 0.861 8.23 7.257 8.23 7.257s-5.084 4.998-10.163 4.137z"></path>
<path fill="#07b128" style="fill: var(--color7, #07b128)" d="M12.77 0.1c-0.97-0.165-1.939-0.115-2.874 0.072 4.867 1.093 7.869 7.185 7.869 7.185s-3.328 3.271-7.289 4.064c0.119 0.027 0.239 0.051 0.361 0.073 5.079 0.861 10.163-4.137 10.163-4.137s-3.151-6.394-8.23-7.255z"></path>
<path fill="#09a66d" style="fill: var(--color1, #09a66d)" d="M20.713 6.825l-4.967-0.838-4.64-5.974c-0.37 0.022-0.737 0.069-1.098 0.137l4.351 5.603-3.745-0.631-3.196-4.135c-0.3 0.135-0.591 0.279-0.873 0.427l2.685 3.474-6.193-1.046c-0.278 0.243-0.431 0.393-0.431 0.393s0.102 0.207 0.298 0.55l6.16 1.039-3.417 2.641c0.22 0.226 0.451 0.45 0.692 0.667l4.001-3.093 3.965 0.669-5.393 4.173c0.335 0.156 0.681 0.291 1.037 0.4l5.632-4.357 4.97 0.838c0.288-0.251 0.447-0.407 0.447-0.407s-0.098-0.199-0.287-0.531z"></path>
<path fill="#49cb5c" style="fill: var(--color6, #49cb5c)" d="M24.454 5.286c1.362-3.225 6.083-4.31 6.083-4.31s2.512 4.142 1.149 7.366c-1.361 3.224-6.083 4.31-6.083 4.31s-2.511-4.142-1.149-7.366z"></path>
<path fill="#07b128" style="fill: var(--color7, #07b128)" d="M30.538 0.976s-1.073 0.247-2.345 0.855c0.653 1.381 1.686 4.185 0.703 6.511-0.713 1.687-2.345 2.788-3.739 3.455 0.251 0.533 0.447 0.855 0.447 0.855s4.721-1.086 6.083-4.31c1.362-3.224-1.15-7.366-1.15-7.366z"></path>
<path fill="#09a66d" style="fill: var(--color1, #09a66d)" d="M32.073 5.683l-3.63 1.523 2.383-5.699c-0.17-0.337-0.289-0.531-0.289-0.531s-0.225 0.052-0.59 0.166l-2.463 5.889-1.528-3.758c-0.259 0.229-0.503 0.476-0.724 0.745l1.731 4.259-1.626 3.887c0.159 0.31 0.266 0.487 0.266 0.487s0.245-0.056 0.637-0.181l1.679-4.014 4.153-1.742c0.027-0.345 0.026-0.691 0.001-1.033z"></path>
</symbol>
<symbol id="search" viewBox="0 0 33 32">
<path stroke-linejoin="round" stroke-linecap="round" stroke-miterlimit="4" stroke-width="2" d="M27.933 15.689c0 6.619-5.366 11.985-11.985 11.985s-11.985-5.366-11.985-11.985c0-6.619 5.366-11.985 11.985-11.985s11.985 5.366 11.985 11.985z"></path>
<path stroke-linejoin="round" stroke-linecap="round" stroke-miterlimit="4" stroke-width="2" d="M24.284 24.647l4.699 4.687"></path>
</symbol>
<symbol id="shopping" viewBox="0 0 32 32">
<path fill="#09a66d" style="fill: var(--color1, #09a66d)" d="M11.829 22.412h8.109c0.253 0 0.457-0.205 0.457-0.457s-0.205-0.457-0.457-0.457h-8.109c-0.253 0-0.457 0.205-0.457 0.457s0.205 0.457 0.457 0.457v0zM13.262 11.92h5.429c0.414 0 0.773-0.266 0.894-0.663l1.139-3.754c0.026-0.082 0.041-0.175 0.041-0.273 0-0.209-0.069-0.402-0.186-0.557l0.002 0.002c-0.17-0.23-0.441-0.378-0.746-0.378-0.001 0-0.003 0-0.004 0h-0.406l-0.83-2.072c-0.187-0.464-0.634-0.785-1.155-0.785-0.001 0-0.003 0-0.004 0h-2.92c-0.514 0-0.969 0.308-1.16 0.785l-0.829 2.072h-0.406c-0.298 0-0.571 0.137-0.749 0.378-0.115 0.153-0.185 0.346-0.185 0.555 0 0.097 0.015 0.191 0.043 0.279l-0.002-0.007 1.139 3.754c0.118 0.386 0.472 0.663 0.89 0.663 0.001 0 0.003 0 0.004 0h-0zM12.107 7.221c0.014-0.019 2.487-0.002 2.505-0.008 0.253 0 0.457-0.205 0.457-0.457s-0.205-0.457-0.457-0.457h-1.1l0.694-1.733c0.050-0.124 0.17-0.211 0.309-0.211 0 0 0 0 0.001 0h2.921c0.137 0 0.259 0.083 0.31 0.211l0.693 1.733h-1.694c-0.253 0-0.457 0.205-0.457 0.457s0.205 0.457 0.457 0.457v0c0.016 0 3.088-0.008 3.1 0.008 0.013 0.018-1.137 3.752-1.137 3.771 0 0.041-5.463 0.008-5.466 0-0.005-0.020-1.15-3.753-1.136-3.771zM11.829 26.974c-0.253 0-0.457 0.205-0.457 0.457s0.205 0.457 0.457 0.457h8.109c0.253 0 0.457-0.205 0.457-0.457s-0.205-0.457-0.457-0.457h-8.109zM24.055 25.602c0-0.253-0.205-0.457-0.457-0.457v0h-11.768c-0.253 0-0.457 0.205-0.457 0.457s0.205 0.457 0.457 0.457h11.768c0.253 0 0.457-0.205 0.457-0.457v0zM26.341 20.716c0 0 0 0 0 0 0.253 0 0.457-0.205 0.457-0.457 0-0 0-0.001 0-0.001v0-17.275c-0.001-1.262-1.024-2.285-2.287-2.287h-17.071c-1.262 0.001-2.285 1.024-2.287 2.287v26.646c0.001 1.262 1.024 2.285 2.287 2.287h17.071c1.262-0.001 2.285-1.024 2.287-2.287v-7.237c0-0.253-0.205-0.457-0.457-0.457s-0.457 0.205-0.457 0.457v7.237c-0.001 0.757-0.615 1.371-1.372 1.372h-17.071c-0.757-0.001-1.371-0.615-1.372-1.372v-26.646c0-0.757 0.615-1.373 1.372-1.373h17.071c0.757 0 1.372 0.616 1.372 1.372v17.275c0 0.253 0.204 0.457 0.457 0.457zM10.021 22.762c-0.226 0.003-0.462 0.005-0.679 0.006 0.155-0.208 0.349-0.478 0.592-0.824 0.212-0.304 0.363-0.579 0.402-0.865 0.006-0.047 0.019-0.131 0.019-0.176 0-0.681-0.554-1.236-1.236-1.236-0.589 0-1.099 0.42-1.213 0.997-0.004 0.024-0.007 0.051-0.007 0.080 0 0.253 0.205 0.457 0.457 0.457 0.219 0 0.401-0.153 0.447-0.358l0.001-0.003c0.029-0.15 0.159-0.261 0.315-0.261 0.17 0 0.31 0.133 0.32 0.3l0 0.001c0.012 0.164-0.072 0.277-0.254 0.539-0.481 0.687-0.767 1.061-0.921 1.264-0.269 0.351-0.398 0.81 0.068 0.965 0.060 0.020 1.268 0.034 1.701 0.028 0.25-0.003 0.452-0.207 0.452-0.457 0-0.253-0.205-0.457-0.457-0.457-0.002 0-0.004 0-0.006 0h0zM23.596 19.668h-11.767c-0.253 0-0.457 0.205-0.457 0.457s0.205 0.457 0.457 0.457h11.768c0.253 0 0.457-0.205 0.457-0.457s-0.205-0.457-0.457-0.457v0zM9.19 25.146c-0.589 0-1.099 0.419-1.213 0.997-0.004 0.024-0.007 0.051-0.007 0.080 0 0.253 0.205 0.457 0.457 0.457 0.219 0 0.401-0.153 0.447-0.358l0.001-0.003c0.030-0.149 0.16-0.259 0.315-0.259 0.178 0 0.322 0.144 0.322 0.322s-0.144 0.322-0.322 0.322c-0 0-0 0-0 0v0c-0.253 0-0.457 0.205-0.457 0.457s0.205 0.457 0.457 0.457v0c0 0 0.001 0 0.001 0 0.178 0 0.322 0.144 0.322 0.322s-0.144 0.322-0.322 0.322c-0.178 0-0.322-0.144-0.322-0.322v0c0-0.253-0.205-0.457-0.457-0.457s-0.457 0.205-0.457 0.457v0c0 0.671 0.557 1.236 1.235 1.236 0.681 0 1.236-0.554 1.236-1.236 0-0.295-0.104-0.566-0.277-0.779 0.173-0.212 0.277-0.484 0.277-0.778 0-0.681-0.554-1.236-1.236-1.236zM9.19 18.172c0.253 0 0.457-0.205 0.457-0.457v0-3.042c0-0.253-0.205-0.457-0.457-0.457v0h-0.65c-0.253 0-0.457 0.205-0.457 0.457s0.205 0.457 0.457 0.457h0.193v2.584c0 0.253 0.204 0.457 0.457 0.457zM11.828 16.959h8.109c0.006 0 0.012 0 0.019 0 0.253 0 0.457-0.205 0.457-0.457s-0.205-0.457-0.457-0.457c-0.007 0-0.013 0-0.020 0l0.001-0h-8.109c-0.006-0-0.012-0-0.019-0-0.253 0-0.457 0.205-0.457 0.457s0.205 0.457 0.457 0.457c0.007 0 0.013-0 0.020-0l-0.001 0zM23.596 14.216h-11.767c-0.253 0-0.457 0.205-0.457 0.457s0.205 0.457 0.457 0.457h11.768c0.253 0 0.457-0.205 0.457-0.457s-0.205-0.457-0.457-0.457v0z"></path>
</symbol>
<symbol id="star" viewBox="0 0 32 32">
<path fill="#fed42d" style="fill: var(--color8, #fed42d)" d="M31.954 12.329c-0.111-0.337-0.4-0.586-0.752-0.638l-0.005-0.001-9.92-1.441-4.436-8.99c-0.156-0.313-0.474-0.524-0.841-0.524s-0.685 0.211-0.839 0.518l-0.002 0.005-4.436 8.99-9.92 1.441c-0.457 0.067-0.804 0.457-0.804 0.928 0 0.264 0.109 0.502 0.284 0.672l0 0 7.178 6.997-1.694 9.88c-0.008 0.047-0.013 0.102-0.013 0.157 0 0.518 0.42 0.938 0.938 0.938 0.159 0 0.309-0.040 0.44-0.11l-0.005 0.002 8.873-4.665 8.873 4.665c0.127 0.068 0.277 0.108 0.437 0.108 0.517 0 0.937-0.419 0.937-0.937 0-0.056-0.005-0.111-0.014-0.165l0.001 0.006-1.695-9.88 7.179-6.997c0.175-0.17 0.283-0.408 0.283-0.671 0-0.104-0.017-0.203-0.048-0.297l0.002 0.007z"></path>
<path fill="#fcbf29" style="fill: var(--color9, #fcbf29)" d="M31.954 12.329c-0.111-0.337-0.4-0.586-0.752-0.638l-0.005-0.001-9.92-1.441-4.436-8.99c-0.157-0.311-0.474-0.521-0.84-0.521-0 0-0.001 0-0.002 0h0v25.752l8.872 4.665c0.127 0.068 0.277 0.108 0.437 0.108 0.207 0 0.398-0.067 0.553-0.181l-0.003 0.002c0.235-0.173 0.386-0.448 0.386-0.759 0-0.056-0.005-0.111-0.014-0.164l0.001 0.006-1.695-9.88 7.179-6.997c0.175-0.17 0.283-0.408 0.283-0.671 0-0.104-0.017-0.203-0.048-0.297l0.002 0.007z"></path>
</symbol>
<symbol id="twitter" viewBox="0 0 32 32">
<path d="M30.848 6.845c-1.142 0.502-2.359 0.833-3.628 0.995 1.305-0.784 2.286-1.996 2.757-3.437l0.013-0.044c-1.15 0.694-2.488 1.224-3.913 1.512l-0.081 0.014c-1.152-1.228-2.785-1.993-4.596-1.993-3.477 0-6.296 2.819-6.296 6.296 0 0.001 0 0.003 0 0.004v-0c0 0.499 0.042 0.978 0.146 1.435-5.235-0.256-9.869-2.765-12.98-6.587-0.541 0.912-0.861 2.010-0.863 3.183v0.001c0 2.181 1.124 4.114 2.798 5.234-1.049-0.029-2.025-0.313-2.877-0.792l0.031 0.016v0.069c0.004 3.037 2.148 5.573 5.004 6.18l0.041 0.007c-0.512 0.141-1.071 0.207-1.651 0.207-0.030 0.001-0.065 0.001-0.1 0.001-0.387 0-0.765-0.039-1.129-0.115l0.036 0.006c0.817 2.495 3.132 4.328 5.885 4.388-2.126 1.674-4.842 2.685-7.794 2.685-0.005 0-0.010 0-0.014 0h0.001c-0.517 0-1.012-0.023-1.508-0.086 2.713 1.772 6.036 2.826 9.604 2.826 0.020 0 0.040-0 0.061-0h-0.003c11.589 0 17.925-9.6 17.925-17.921 0-0.279-0.010-0.548-0.023-0.814 1.246-0.9 2.293-1.984 3.125-3.225l0.029-0.045z"></path>
</symbol>
<symbol id="user" viewBox="0 0 32 32">
<path fill="#09a66d" style="fill: var(--color1, #09a66d)" d="M16.002 0c-4.571 0-8.308 3.737-8.308 8.308s3.737 8.309 8.308 8.309c4.572 0 8.309-3.737 8.309-8.309-0.001-4.571-3.737-8.308-8.309-8.308zM30.26 23.256c-0.241-0.582-0.521-1.084-0.85-1.547l0.016 0.024c-1.669-2.468-4.245-4.1-7.147-4.5-0.363-0.036-0.762 0.037-1.052 0.255-1.431 1.065-3.234 1.705-5.186 1.705-0.014 0-0.027-0-0.041-0h0.002c-0.011 0-0.024 0-0.036 0-1.953 0-3.756-0.64-5.211-1.723l0.023 0.017c-0.225-0.171-0.509-0.273-0.818-0.273-0.083 0-0.164 0.007-0.242 0.021l0.008-0.001c-2.999 0.425-5.541 2.095-7.125 4.461l-0.023 0.037c-0.303 0.438-0.582 0.939-0.812 1.466l-0.022 0.058c-0.109 0.218-0.073 0.472 0.036 0.69 0.29 0.508 0.653 1.016 0.98 1.45 0.508 0.69 1.052 1.307 1.669 1.887 0.507 0.508 1.088 0.98 1.669 1.452 2.707 2.039 6.127 3.265 9.832 3.265 0.013 0 0.025 0 0.038-0h-0.002c3.556 0 7.002-1.125 9.868-3.265 0.615-0.466 1.16-0.941 1.67-1.451l-0 0c0.58-0.581 1.16-1.198 1.668-1.887 0.363-0.472 0.69-0.943 0.98-1.451 0.181-0.218 0.217-0.472 0.109-0.69z"></path>
</symbol>
<symbol id="prev-next" viewBox="0 0 33 33">
<path d="M18.3585 16.5762L11.7585 9.97615L13.6438 8.09082L22.1292 16.5762L13.6438 25.0615L11.7585 23.1762L18.3585 16.5762Z"></path>
</symbol>
<symbol id="close" viewBox="0 0 24 24">
<path stroke="#292D32" stroke-linecap="round" stroke-linejoin="round" stroke-width="1.5" d="M12 22c5.5 0 10-4.5 10-10S17.5 2 12 2 2 6.5 2 12s4.5 10 10 10ZM9.17 14.83l5.66-5.66M14.83 14.83 9.17 9.17"></path>
</symbol>
<symbol id="person-black" viewBox="0 0 32 32">
<path d="M16 16c2.947 0 5.333-2.387 5.333-5.333S18.946 5.334 16 5.334c-2.947 0-5.333 2.387-5.333 5.333S13.054 16 16 16zm0 2.667c-3.56 0-10.667 1.787-10.667 5.333v1.333c0 .733.6 1.333 1.333 1.333h18.667c.733 0 1.333-.6 1.333-1.333V24c0-3.547-7.107-5.333-10.667-5.333z"/>
</symbol>
<symbol id="phone-black" viewBox="0 0 32 32">
<path d="m24.882 19.773-3.268-.373a2.561 2.561 0 0 0-2.11.733L17.137 22.5a19.357 19.357 0 0 1-8.478-8.478l2.38-2.38a2.561 2.561 0 0 0 .733-2.11l-.373-3.242a2.575 2.575 0 0 0-2.56-2.277H6.613c-1.454 0-2.663 1.209-2.573 2.663.682 10.987 9.469 19.761 20.443 20.443 1.454.09 2.663-1.119 2.663-2.573V22.32a2.549 2.549 0 0 0-2.264-2.547z"/>
</symbol>
<symbol id="email-black" viewBox="0 0 32 32">
<path d="M26.667 5.333H5.334A2.663 2.663 0 0 0 2.681 8l-.013 16c0 1.467 1.2 2.667 2.667 2.667h21.333c1.467 0 2.667-1.2 2.667-2.667V8c0-1.467-1.2-2.667-2.667-2.667zM26.133 11l-9.427 5.893a1.346 1.346 0 0 1-1.413 0L5.866 11a1.132 1.132 0 1 1 1.2-1.92l8.933 5.587 8.933-5.587a1.132 1.132 0 1 1 1.2 1.92z"/>
</symbol>
<symbol id="icon-check" viewBox="0 0 34 32">
<path d="m8.442 16.537-.147-.14-2.205 2.088 7.767 7.41 16.318-15.567-2.19-2.089-14.128 13.465-5.416-5.167z"/>
</symbol>
</defs>
</svg>
