<svg xmlns="http://www.w3.org/2000/svg" width="25" height="24" fill="none"><path stroke="#222" stroke-linecap="round" stroke-linejoin="round" stroke-width="1.5" d="M7.617 19.82a.766.766 0 0 1 0 1.53.764.764 0 1 1 0-1.53ZM18.869 19.82a.766.766 0 1 1-.001 1.532.766.766 0 0 1 .001-1.532Z" clip-rule="evenodd"/><path stroke="#222" stroke-linecap="round" stroke-linejoin="round" stroke-width="1.5" d="m2.944 3.25 2.08.36.963 11.473a1.802 1.802 0 0 0 1.797 1.653h10.912c.896 0 1.656-.658 1.785-1.546l.95-6.558a1.34 1.34 0 0 0-1.328-1.533H5.358M14.32 10.797h2.773"/></svg>