<svg xmlns="http://www.w3.org/2000/svg" width="41" height="41" fill="none"><g fill="#09A66D" clip-path="url(#a)"><path d="M3.507 12.55h6.18a.586.586 0 0 0 0-1.171h-6.18a.586.586 0 1 0 0 1.171ZM9.475 15.371H7.033a.586.586 0 1 0 0 1.172h2.442a.586.586 0 1 0 0-1.172ZM1.056 19.435h5.977a.586.586 0 1 0 0-1.172H1.056a.586.586 0 1 0 0 1.172ZM10.272 29.822a.586.586 0 0 0-.586-.586h-6.18a.586.586 0 0 0 0 1.172h6.18a.586.586 0 0 0 .586-.586ZM9.475 25.244H7.033a.586.586 0 1 0 0 1.172h2.442a.586.586 0 1 0 0-1.172ZM7.62 22.938a.586.586 0 0 0-.587-.586H1.056a.586.586 0 0 0 0 1.172h5.977a.586.586 0 0 0 .586-.586ZM25.433 13.849a.586.586 0 0 0 .586-.586v-.894a.586.586 0 1 0-1.172 0v.894c0 .324.262.586.586.586ZM31.875 14.451a.586.586 0 0 0-.828 0l-.633.633a.586.586 0 0 0 .83.828l.631-.632a.586.586 0 0 0 0-.829ZM33.063 20.308a.586.586 0 1 0 0 1.171h.894a.586.586 0 1 0 0-1.171h-.894ZM31.243 25.875a.586.586 0 0 0-.829.828l.633.633a.586.586 0 0 0 .828-.829l-.632-.632ZM24.847 28.524v.894a.586.586 0 0 0 1.172 0v-.894a.586.586 0 1 0-1.172 0ZM19.623 25.875l-.632.632a.586.586 0 0 0 .828.829l.633-.633a.586.586 0 0 0-.829-.828ZM16.908 20.308a.586.586 0 1 0 0 1.171h.894a.586.586 0 0 0 0-1.171h-.894ZM20.452 15.084l-.633-.633a.586.586 0 0 0-.828.829l.632.632a.586.586 0 1 0 .829-.829ZM28.584 20.893a.586.586 0 0 0-.586-.585h-1.98v-4.35a.586.586 0 1 0-1.171 0v4.935c0 .324.262.586.586.586h2.565a.586.586 0 0 0 .586-.585Z"/><path d="M36.543 20.797a.586.586 0 0 0 .55-.62c-.373-6.15-5.495-10.966-11.66-10.966-6.442 0-11.682 5.24-11.682 11.682s5.24 11.683 11.682 11.683c5.77 0 10.695-4.229 11.552-9.934a.586.586 0 0 0-1.16-.174c-.769 5.126-5.195 8.936-10.392 8.936-5.796 0-10.51-4.715-10.51-10.51 0-5.796 4.714-10.51 10.51-10.51 5.547 0 10.154 4.332 10.49 9.863.02.323.297.569.62.55Z"/><path d="M25.433 5.857c-2.06 0-4.08.427-5.939 1.227H9.156a.586.586 0 1 0 0 1.172h8.134a15.02 15.02 0 0 0-3.005 2.547.586.586 0 0 0 .869.786 13.895 13.895 0 0 1 10.28-4.56c7.644 0 13.864 6.22 13.864 13.864 0 7.645-6.22 13.865-13.865 13.865-7.645 0-13.865-6.22-13.865-13.865 0-2.677.765-5.275 2.212-7.514a.586.586 0 1 0-.984-.636 14.982 14.982 0 0 0-2.4 8.15c0 5.295 2.75 9.958 6.898 12.638H9.156a.586.586 0 1 0 0 1.172h10.33a14.95 14.95 0 0 0 5.947 1.227c8.292 0 15.037-6.745 15.037-15.037 0-8.29-6.745-15.036-15.037-15.036Z"/></g><defs><clipPath id="a"><path fill="#fff" d="M.47.893h40v40h-40z"/></clipPath></defs></svg>